#!OML:ASF E:\Steps\Project 1\Capture day 1\Session 2\Subject.ASF
:FULLY-SPECIFIED
:DEGREES
127
root -0.291334 16.3943 20.2714 -152.702 8.60661 -170.008
lowerback -20.44 -2.22995 -2.25274
upperback 1.46743 -2.67791 2.80171
thorax 13.4595 -1.48841 3.61467
lowerneck -2.58781 -5.10706 0.125762
upperneck 21.6954 -6.32044 2.87105
head 7.14131 -2.29139 0.53706
rclavicle 1.98785e-015 2.14687e-014
rhumerus -45.2206 -16.0791 -76.2715
rradius 41.0249
rwrist -5.70081
rhand -7.49428 -54.0696
rfingers 7.12502
rthumb 18.3954 -83.2198
lclavicle 1.98785e-015 2.14687e-014
lhumerus -27.9606 1.34616 78.3634
lradius 33.6885
lwrist 2.62568
lhand -23.3971 -13.4759
lfingers 7.12502
lthumb 3.05961 16.4819
rfemur -71.0194 1.70477 18.3652
rtibia 55.3479
rfoot -19.9389 4.11717
rtoes -33.4151
lfemur -24.8439 -9.43061 -4.78298
ltibia 16.2613
lfoot -16.2558 12.3018
ltoes -29.6835
128
root -0.239347 16.3871 20.2311 -152.559 8.59051 -170.111
lowerback -20.9241 -2.1817 -2.12302
upperback 1.64724 -2.62522 2.59144
thorax 13.9286 -1.45535 3.31107
lowerneck -2.83436 -5.02234 0.287184
upperneck 21.7985 -6.24369 2.94535
head 7.2147 -2.23067 0.533365
rclavicle 6.12257e-014 -5.1684e-014
rhumerus -44.8794 -16.3179 -76.5677
rradius 40.7641
rwrist -5.69455
rhand -7.72789 -53.7254
rfingers 7.12502
rthumb 18.1706 -82.8967
lclavicle 6.12257e-014 -5.1684e-014
lhumerus -27.6043 1.38482 78.0767
lradius 33.8559
lwrist 3.14902
lhand -22.6938 -13.2358
lfingers 7.12502
lthumb 3.73884 16.7112
rfemur -71.1872 1.86917 18.4151
rtibia 55.7797
rfoot -20.3262 3.95491
rtoes -32.7829
lfemur -24.8033 -9.27968 -4.75108
ltibia 16.1993
lfoot -16.2136 12.2628
ltoes -30.3588
129
root -0.189482 16.381 20.1956 -152.407 8.52064 -170.342
lowerback -20.9985 -2.23992 -2.3682
upperback 1.62231 -2.6387 2.59277
thorax 13.9568 -1.48022 3.44812
lowerneck -3.18274 -4.93863 0.29626
upperneck 22.1514 -6.09148 2.74702
head 7.38296 -2.15593 0.469529
rclavicle 1.94809e-014 -3.10104e-014
rhumerus -44.8375 -16.0942 -76.5791
rradius 40.7433
rwrist -5.85264
rhand -7.81709 -53.5164
rfingers 7.12502
rthumb 18.0848 -82.6956
lclavicle 1.94809e-014 -3.10104e-014
lhumerus -27.5203 1.44505 78.1995
lradius 33.8638
lwrist 2.92857
lhand -23.2186 -13.167
lfingers 7.12502
lthumb 3.23201 16.7882
rfemur -71.4951 1.93381 18.2717
rtibia 56.2618
rfoot -20.5881 3.81181
rtoes -32.8108
lfemur -24.8651 -9.30933 -4.81305
ltibia 16.1807
lfoot -16.1724 12.3548
ltoes -30.7714
130
root -0.141245 16.3754 20.1685 -152.218 8.42532 -170.449
lowerback -21.0922 -2.21186 -2.38106
upperback 1.63164 -2.59288 2.56296
thorax 14.0174 -1.45961 3.43544
lowerneck -3.26668 -4.97246 0.221585
upperneck 22.1332 -6.15134 2.80802
head 7.3973 -2.18793 0.495019
rclavicle -1.39149e-014 -8.74653e-015
rhumerus -44.8405 -16.1814 -76.5569
rradius 40.8518
rwrist -5.70612
rhand -7.69031 -53.3923
rfingers 7.12502
rthumb 18.2068 -82.5602
lclavicle -1.39149e-014 -8.74653e-015
lhumerus -27.3542 1.44258 78.2311
lradius 33.9214
lwrist 2.94818
lhand -22.9461 -13.0758
lfingers 7.12502
lthumb 3.49512 16.8753
rfemur -71.9448 2.17945 18.1338
rtibia 56.8948
rfoot -20.7061 3.62824
rtoes -32.3684
lfemur -25.0054 -9.41406 -4.68442
ltibia 16.2403
lfoot -16.2765 12.4654
ltoes -30.4621
131
root -0.0922958 16.3695 20.1403 -152.052 8.36235 -170.528
lowerback -21.2703 -2.14493 -2.30533
upperback 1.72084 -2.51572 2.4881
thorax 14.212 -1.41981 3.32969
lowerneck -3.23866 -5.02236 0.298942
upperneck 21.8575 -6.25073 2.81603
head 7.301 -2.24671 0.478183
rclavicle 1.59028e-015 -7.95139e-016
rhumerus -44.6859 -16.3777 -76.6014
rradius 40.8971
rwrist -5.53312
rhand -8.17112 -54.7885
rfingers 7.12502
rthumb 17.7442 -83.9989
lclavicle 1.59028e-015 -7.95139e-016
lhumerus -27.1092 1.30025 78.2291
lradius 33.9942
lwrist 3.16049
lhand -22.4477 -12.8707
lfingers 7.12502
lthumb 3.97649 17.072
rfemur -72.384 2.33881 18.2053
rtibia 57.3971
rfoot -20.5959 3.26263
rtoes -33.4859
lfemur -25.0861 -9.48151 -4.55251
ltibia 16.3002
lfoot -16.5343 12.475
ltoes -29.7274
132
root -0.0455918 16.3646 20.1091 -151.923 8.29063 -170.682
lowerback -20.9817 -2.13187 -2.3425
upperback 1.56385 -2.48426 2.48131
thorax 13.857 -1.3994 3.35719
lowerneck -3.02982 -4.98015 0.256565
upperneck 21.6661 -6.17487 2.78057
head 7.20009 -2.22543 0.48497
rclavicle -4.01545e-014 4.45278e-014
rhumerus -44.8307 -16.0677 -76.5843
rradius 40.9787
rwrist -5.81588
rhand -8.79707 -55.9413
rfingers 7.12502
rthumb 17.1418 -85.2051
lclavicle -4.01545e-014 4.45278e-014
lhumerus -27.2803 1.17021 78.3941
lradius 34.1139
lwrist 3.25888
lhand -23.4823 -13.2823
lfingers 7.12502
lthumb 2.97731 16.6767
rfemur -72.7573 2.28761 18.3943
rtibia 57.7093
rfoot -20.1928 2.71052
rtoes -36.8168
lfemur -25.1414 -9.50116 -4.54905
ltibia 16.3325
lfoot -16.7871 12.3823
ltoes -28.7668
133
root -0.00105859 16.3634 20.0804 -151.839 8.20187 -170.775
lowerback -20.4719 -2.11294 -2.29272
upperback 1.35836 -2.47272 2.51308
thorax 13.3181 -1.37981 3.37465
lowerneck -2.75285 -4.92404 0.1075
upperneck 21.4935 -6.07637 2.82187
head 7.09915 -2.19257 0.537363
rclavicle -1.94809e-014 1.27222e-014
rhumerus -45.0571 -15.6129 -76.5697
rradius 41.081
rwrist -5.99626
rhand -8.29543 -54.6569
rfingers 7.12502
rthumb 17.6246 -83.8781
lclavicle -1.94809e-014 1.27222e-014
lhumerus -27.6117 1.29589 78.5151
lradius 34.2126
lwrist 3.08074
lhand -23.3348 -13.8308
lfingers 7.12502
lthumb 3.11982 16.1262
rfemur -73.0359 2.32746 18.4552
rtibia 58.2597
rfoot -20.2148 2.70552
rtoes -36.805
lfemur -25.1541 -9.5282 -4.47015
ltibia 16.3442
lfoot -16.9523 12.3153
ltoes -27.753
134
root 0.0458279 16.3622 20.0427 -151.871 8.01281 -170.778
lowerback -20.6283 -2.04838 -2.14242
upperback 1.62145 -2.43813 2.51708
thorax 13.7066 -1.36622 3.30203
lowerneck -2.88732 -4.93069 0.25133
upperneck 21.3644 -6.1046 2.73541
head 7.07378 -2.21259 0.480278
rclavicle 7.95139e-016 -8.74653e-015
rhumerus -44.7437 -15.6536 -76.6526
rradius 41.1989
rwrist -5.87532
rhand -7.65057 -53.9486
rfingers 7.12502
rthumb 18.245 -83.1129
lclavicle 7.95139e-016 -8.74653e-015
lhumerus -27.2799 1.27827 78.6157
lradius 34.3758
lwrist 2.95578
lhand -23.4686 -13.7651
lfingers 7.12502
lthumb 2.99052 16.1937
rfemur -72.9515 2.43279 18.4792
rtibia 58.7449
rfoot -20.5719 3.02882
rtoes -34.4806
lfemur -24.9401 -9.7057 -4.28538
ltibia 16.2561
lfoot -16.9725 12.5292
ltoes -28.3314
135
root 0.0934507 16.3626 20.0025 -151.905 7.70354 -170.799
lowerback -20.2202 -2.06611 -2.03968
upperback 1.50651 -2.49914 2.63083
thorax 13.3407 -1.38437 3.35749
lowerneck -2.92974 -4.87756 0.273675
upperneck 21.7009 -5.95477 2.47925
head 7.17969 -2.13833 0.403456
rclavicle 2.42517e-014 -7.95139e-016
rhumerus -44.9942 -15.3091 -76.5173
rradius 41.3952
rwrist -6.00071
rhand -7.84188 -54.0652
rfingers 7.12502
rthumb 18.061 -83.2466
lclavicle 2.42517e-014 -7.95139e-016
lhumerus -27.5709 1.49606 78.6754
lradius 34.6237
lwrist 3.1545
lhand -22.5369 -13.4068
lfingers 7.12502
lthumb 3.89027 16.5375
rfemur -72.7032 2.427 18.602
rtibia 58.7608
rfoot -20.6796 3.0839
rtoes -33.7657
lfemur -24.7568 -9.96196 -4.08841
ltibia 16.1767
lfoot -16.828 12.8093
ltoes -29.5137
136
root 0.13807 16.3645 19.9718 -151.81 7.46373 -170.95
lowerback -20.3326 -2.13006 -1.91554
upperback 1.58008 -2.62002 2.6524
thorax 13.4969 -1.43507 3.27075
lowerneck -2.86189 -4.63596 0.0457494
upperneck 21.6601 -5.58547 2.44935
head 7.15489 -1.98298 0.45947
rclavicle -1.39149e-014 1.03368e-014
rhumerus -44.7064 -14.9497 -76.6172
rradius 41.4983
rwrist -6.14752
rhand -8.15425 -53.6697
rfingers 7.12502
rthumb 17.7604 -82.8786
lclavicle -1.39149e-014 1.03368e-014
lhumerus -27.5803 1.62506 78.7506
lradius 34.7283
lwrist 2.81352
lhand -22.8792 -13.2693
lfingers 7.12502
lthumb 3.55974 16.6807
rfemur -72.7442 2.32788 18.6526
rtibia 58.7317
rfoot -20.9506 3.05074
rtoes -33.1481
lfemur -24.8196 -10.0719 -4.0328
ltibia 16.1547
lfoot -16.6148 12.9296
ltoes -29.4169
137
root 0.180675 16.3645 19.9373 -151.632 7.19908 -171.074
lowerback -20.3304 -2.22793 -1.76203
upperback 1.35348 -2.77885 2.72774
thorax 13.2406 -1.48829 3.21801
lowerneck -2.2028 -4.51972 -0.231624
upperneck 21.6408 -5.31339 2.32481
head 7.03248 -1.8739 0.49994
rclavicle 1.27222e-014 7.95139e-016
rhumerus -45.0764 -14.2766 -76.5776
rradius 41.8267
rwrist -6.24697
rhand -8.05716 -54.0257
rfingers 7.12502
rthumb 17.8538 -83.2262
lclavicle 1.27222e-014 7.95139e-016
lhumerus -28.1455 1.64192 78.8651
lradius 34.8742
lwrist 2.72108
lhand -23.186 -13.3242
lfingers 7.12502
lthumb 3.26346 16.6306
rfemur -72.8908 2.3022 18.6346
rtibia 58.9231
rfoot -21.4635 2.92701
rtoes -32.3109
lfemur -24.9408 -10.1735 -3.91671
ltibia 16.0632
lfoot -16.3997 13.0241
ltoes -29.0834
138
root 0.224406 16.366 19.8998 -151.458 6.69013 -171.119
lowerback -20.1722 -2.38679 -1.49212
upperback 1.10303 -3.05159 2.87059
thorax 12.8735 -1.5874 3.14233
lowerneck -1.83616 -4.55572 -0.398696
upperneck 21.826 -5.26094 2.13253
head 7.02697 -1.86025 0.4779
rclavicle 2.38542e-015 1.66979e-014
rhumerus -45.4026 -13.512 -76.5825
rradius 41.9968
rwrist -6.09449
rhand -8.0145 -54.2932
rfingers 7.12502
rthumb 17.8949 -83.4899
lclavicle 2.38542e-015 1.66979e-014
lhumerus -28.5536 1.85025 78.9385
lradius 34.8276
lwrist 2.79379
lhand -22.9849 -13.3056
lfingers 7.12502
lthumb 3.45766 16.6461
rfemur -72.729 2.08955 18.7605
rtibia 58.8138
rfoot -21.8672 2.85628
rtoes -31.3224
lfemur -25.1537 -10.4505 -3.60985
ltibia 16.0964
lfoot -16.0103 13.1442
ltoes -30.4257
